<svg xmlns="http://www.w3.org/2000/svg" xmlns:xlink="http://www.w3.org/1999/xlink" version="1.1" width="256" height="256" viewBox="0 0 256 256" xml:space="preserve">

<defs>
</defs>
<g style="stroke: none; stroke-width: 0; stroke-dasharray: none; stroke-linecap: butt; stroke-linejoin: miter; stroke-miterlimit: 10; fill: none; fill-rule: nonzero; opacity: 1;" transform="translate(1.4065934065934016 1.4065934065934016) scale(2.81 2.81)" >
	<path d="M 45 71 c -6.912 0 -12.326 -11.421 -12.326 -26 c 0 -14.58 5.414 -26 12.326 -26 s 12.326 11.42 12.326 26 C 57.326 59.579 51.912 71 45 71 z M 45 21 c -5.597 0 -10.326 10.991 -10.326 24 c 0 13.01 4.729 24 10.326 24 c 5.598 0 10.326 -10.99 10.326 -24 C 55.326 31.991 50.598 21 45 21 z" style="stroke: none; stroke-width: 1; stroke-dasharray: none; stroke-linecap: butt; stroke-linejoin: miter; stroke-miterlimit: 10; fill: rgb(0,0,0); fill-rule: nonzero; opacity: 1;" transform=" matrix(1 0 0 1 0 0) " stroke-linecap="round" />
	<path d="M 58.559 61.891 c -0.749 0 -1.533 -0.04 -2.352 -0.121 c -5.298 -0.521 -11.467 -2.687 -17.37 -6.095 C 26.211 48.386 19.027 37.986 22.483 32 c 3.456 -5.986 16.053 -4.965 28.68 2.325 l 0 0 c 5.903 3.409 10.862 7.669 13.963 11.996 c 3.263 4.552 4.111 8.7 2.391 11.68 C 66.049 60.542 62.909 61.891 58.559 61.891 z M 31.385 30.108 c -3.441 0 -6.042 0.939 -7.169 2.892 c -2.799 4.848 4.355 14.438 15.622 20.942 c 5.662 3.27 11.546 5.343 16.566 5.837 c 4.674 0.462 8.095 -0.553 9.381 -2.779 c 1.286 -2.228 0.454 -5.695 -2.283 -9.515 c -2.938 -4.1 -7.676 -8.159 -13.338 -11.428 l 0 0 C 43.435 32.173 36.487 30.108 31.385 30.108 z" style="stroke: none; stroke-width: 1; stroke-dasharray: none; stroke-linecap: butt; stroke-linejoin: miter; stroke-miterlimit: 10; fill: rgb(0,0,0); fill-rule: nonzero; opacity: 1;" transform=" matrix(1 0 0 1 0 0) " stroke-linecap="round" />
	<path d="M 31.497 61.895 c -4.245 0 -7.502 -1.277 -9.014 -3.895 c -3.456 -5.986 3.728 -16.385 16.354 -23.675 l 0 0 c 5.904 -3.408 12.072 -5.573 17.37 -6.095 c 5.573 -0.547 9.589 0.79 11.31 3.77 s 0.872 7.128 -2.391 11.68 c -3.101 4.326 -8.06 8.587 -13.963 11.995 C 44.058 59.777 36.96 61.895 31.497 61.895 z M 39.837 36.057 C 28.57 42.562 21.417 52.152 24.215 57 c 2.799 4.846 14.681 3.449 25.948 -3.058 c 5.662 -3.269 10.399 -7.327 13.338 -11.428 c 2.737 -3.819 3.569 -7.288 2.283 -9.515 c -1.284 -2.227 -4.707 -3.238 -9.381 -2.78 C 51.383 30.715 45.5 32.788 39.837 36.057 L 39.837 36.057 z" style="stroke: none; stroke-width: 1; stroke-dasharray: none; stroke-linecap: butt; stroke-linejoin: miter; stroke-miterlimit: 10; fill: rgb(0,0,0); fill-rule: nonzero; opacity: 1;" transform=" matrix(1 0 0 1 0 0) " stroke-linecap="round" />
	<path d="M 45 50.097 c -2.81 0 -5.096 -2.286 -5.096 -5.097 c 0 -2.81 2.286 -5.096 5.096 -5.096 c 2.811 0 5.097 2.286 5.097 5.096 C 50.097 47.811 47.811 50.097 45 50.097 z M 45 41.904 c -1.707 0 -3.096 1.389 -3.096 3.096 s 1.389 3.097 3.096 3.097 s 3.097 -1.39 3.097 -3.097 S 46.707 41.904 45 41.904 z" style="stroke: none; stroke-width: 1; stroke-dasharray: none; stroke-linecap: butt; stroke-linejoin: miter; stroke-miterlimit: 10; fill: rgb(0,0,0); fill-rule: nonzero; opacity: 1;" transform=" matrix(1 0 0 1 0 0) " stroke-linecap="round" />
	<path d="M 71.337 80.448 H 18.663 c -5.023 0 -9.11 -4.087 -9.11 -9.111 V 18.663 c 0 -5.023 4.087 -9.11 9.11 -9.11 h 52.674 c 5.024 0 9.111 4.087 9.111 9.11 v 52.674 C 80.448 76.361 76.361 80.448 71.337 80.448 z M 18.663 11.552 c -3.921 0 -7.11 3.189 -7.11 7.11 v 52.674 c 0 3.921 3.189 7.111 7.11 7.111 h 52.674 c 3.921 0 7.111 -3.19 7.111 -7.111 V 18.663 c 0 -3.921 -3.19 -7.11 -7.111 -7.11 H 18.663 z" style="stroke: none; stroke-width: 1; stroke-dasharray: none; stroke-linecap: butt; stroke-linejoin: miter; stroke-miterlimit: 10; fill: rgb(0,0,0); fill-rule: nonzero; opacity: 1;" transform=" matrix(1 0 0 1 0 0) " stroke-linecap="round" />
	<path d="M 23.297 11.552 c -0.552 0 -1 -0.448 -1 -1 V 1 c 0 -0.552 0.448 -1 1 -1 s 1 0.448 1 1 v 9.552 C 24.297 11.104 23.85 11.552 23.297 11.552 z" style="stroke: none; stroke-width: 1; stroke-dasharray: none; stroke-linecap: butt; stroke-linejoin: miter; stroke-miterlimit: 10; fill: rgb(0,0,0); fill-rule: nonzero; opacity: 1;" transform=" matrix(1 0 0 1 0 0) " stroke-linecap="round" />
	<path d="M 23.297 90 c -0.552 0 -1 -0.447 -1 -1 v -9.552 c 0 -0.553 0.448 -1 1 -1 s 1 0.447 1 1 V 89 C 24.297 89.553 23.85 90 23.297 90 z" style="stroke: none; stroke-width: 1; stroke-dasharray: none; stroke-linecap: butt; stroke-linejoin: miter; stroke-miterlimit: 10; fill: rgb(0,0,0); fill-rule: nonzero; opacity: 1;" transform=" matrix(1 0 0 1 0 0) " stroke-linecap="round" />
	<path d="M 66.703 11.552 c -0.553 0 -1 -0.448 -1 -1 V 1 c 0 -0.552 0.447 -1 1 -1 s 1 0.448 1 1 v 9.552 C 67.703 11.104 67.256 11.552 66.703 11.552 z" style="stroke: none; stroke-width: 1; stroke-dasharray: none; stroke-linecap: butt; stroke-linejoin: miter; stroke-miterlimit: 10; fill: rgb(0,0,0); fill-rule: nonzero; opacity: 1;" transform=" matrix(1 0 0 1 0 0) " stroke-linecap="round" />
	<path d="M 66.703 90 c -0.553 0 -1 -0.447 -1 -1 v -9.552 c 0 -0.553 0.447 -1 1 -1 s 1 0.447 1 1 V 89 C 67.703 89.553 67.256 90 66.703 90 z" style="stroke: none; stroke-width: 1; stroke-dasharray: none; stroke-linecap: butt; stroke-linejoin: miter; stroke-miterlimit: 10; fill: rgb(0,0,0); fill-rule: nonzero; opacity: 1;" transform=" matrix(1 0 0 1 0 0) " stroke-linecap="round" />
	<path d="M 37.766 11.552 c -0.552 0 -1 -0.448 -1 -1 V 1 c 0 -0.552 0.448 -1 1 -1 s 1 0.448 1 1 v 9.552 C 38.766 11.104 38.318 11.552 37.766 11.552 z" style="stroke: none; stroke-width: 1; stroke-dasharray: none; stroke-linecap: butt; stroke-linejoin: miter; stroke-miterlimit: 10; fill: rgb(0,0,0); fill-rule: nonzero; opacity: 1;" transform=" matrix(1 0 0 1 0 0) " stroke-linecap="round" />
	<path d="M 37.766 90 c -0.552 0 -1 -0.447 -1 -1 v -9.552 c 0 -0.553 0.448 -1 1 -1 s 1 0.447 1 1 V 89 C 38.766 89.553 38.318 90 37.766 90 z" style="stroke: none; stroke-width: 1; stroke-dasharray: none; stroke-linecap: butt; stroke-linejoin: miter; stroke-miterlimit: 10; fill: rgb(0,0,0); fill-rule: nonzero; opacity: 1;" transform=" matrix(1 0 0 1 0 0) " stroke-linecap="round" />
	<path d="M 52.234 11.552 c -0.553 0 -1 -0.448 -1 -1 V 1 c 0 -0.552 0.447 -1 1 -1 s 1 0.448 1 1 v 9.552 C 53.234 11.104 52.787 11.552 52.234 11.552 z" style="stroke: none; stroke-width: 1; stroke-dasharray: none; stroke-linecap: butt; stroke-linejoin: miter; stroke-miterlimit: 10; fill: rgb(0,0,0); fill-rule: nonzero; opacity: 1;" transform=" matrix(1 0 0 1 0 0) " stroke-linecap="round" />
	<path d="M 52.234 90 c -0.553 0 -1 -0.447 -1 -1 v -9.552 c 0 -0.553 0.447 -1 1 -1 s 1 0.447 1 1 V 89 C 53.234 89.553 52.787 90 52.234 90 z" style="stroke: none; stroke-width: 1; stroke-dasharray: none; stroke-linecap: butt; stroke-linejoin: miter; stroke-miterlimit: 10; fill: rgb(0,0,0); fill-rule: nonzero; opacity: 1;" transform=" matrix(1 0 0 1 0 0) " stroke-linecap="round" />
	<path d="M 10.552 67.703 H 1 c -0.552 0 -1 -0.447 -1 -1 s 0.448 -1 1 -1 h 9.552 c 0.552 0 1 0.447 1 1 S 11.104 67.703 10.552 67.703 z" style="stroke: none; stroke-width: 1; stroke-dasharray: none; stroke-linecap: butt; stroke-linejoin: miter; stroke-miterlimit: 10; fill: rgb(0,0,0); fill-rule: nonzero; opacity: 1;" transform=" matrix(1 0 0 1 0 0) " stroke-linecap="round" />
	<path d="M 89 67.703 h -9.552 c -0.553 0 -1 -0.447 -1 -1 s 0.447 -1 1 -1 H 89 c 0.553 0 1 0.447 1 1 S 89.553 67.703 89 67.703 z" style="stroke: none; stroke-width: 1; stroke-dasharray: none; stroke-linecap: butt; stroke-linejoin: miter; stroke-miterlimit: 10; fill: rgb(0,0,0); fill-rule: nonzero; opacity: 1;" transform=" matrix(1 0 0 1 0 0) " stroke-linecap="round" />
	<path d="M 10.552 24.297 H 1 c -0.552 0 -1 -0.448 -1 -1 s 0.448 -1 1 -1 h 9.552 c 0.552 0 1 0.448 1 1 S 11.104 24.297 10.552 24.297 z" style="stroke: none; stroke-width: 1; stroke-dasharray: none; stroke-linecap: butt; stroke-linejoin: miter; stroke-miterlimit: 10; fill: rgb(0,0,0); fill-rule: nonzero; opacity: 1;" transform=" matrix(1 0 0 1 0 0) " stroke-linecap="round" />
	<path d="M 89 24.297 h -9.552 c -0.553 0 -1 -0.448 -1 -1 s 0.447 -1 1 -1 H 89 c 0.553 0 1 0.448 1 1 S 89.553 24.297 89 24.297 z" style="stroke: none; stroke-width: 1; stroke-dasharray: none; stroke-linecap: butt; stroke-linejoin: miter; stroke-miterlimit: 10; fill: rgb(0,0,0); fill-rule: nonzero; opacity: 1;" transform=" matrix(1 0 0 1 0 0) " stroke-linecap="round" />
	<path d="M 10.552 53.234 H 1 c -0.552 0 -1 -0.447 -1 -1 s 0.448 -1 1 -1 h 9.552 c 0.552 0 1 0.447 1 1 S 11.104 53.234 10.552 53.234 z" style="stroke: none; stroke-width: 1; stroke-dasharray: none; stroke-linecap: butt; stroke-linejoin: miter; stroke-miterlimit: 10; fill: rgb(0,0,0); fill-rule: nonzero; opacity: 1;" transform=" matrix(1 0 0 1 0 0) " stroke-linecap="round" />
	<path d="M 89 53.234 h -9.552 c -0.553 0 -1 -0.447 -1 -1 s 0.447 -1 1 -1 H 89 c 0.553 0 1 0.447 1 1 S 89.553 53.234 89 53.234 z" style="stroke: none; stroke-width: 1; stroke-dasharray: none; stroke-linecap: butt; stroke-linejoin: miter; stroke-miterlimit: 10; fill: rgb(0,0,0); fill-rule: nonzero; opacity: 1;" transform=" matrix(1 0 0 1 0 0) " stroke-linecap="round" />
	<path d="M 10.552 38.766 H 1 c -0.552 0 -1 -0.448 -1 -1 s 0.448 -1 1 -1 h 9.552 c 0.552 0 1 0.448 1 1 S 11.104 38.766 10.552 38.766 z" style="stroke: none; stroke-width: 1; stroke-dasharray: none; stroke-linecap: butt; stroke-linejoin: miter; stroke-miterlimit: 10; fill: rgb(0,0,0); fill-rule: nonzero; opacity: 1;" transform=" matrix(1 0 0 1 0 0) " stroke-linecap="round" />
	<path d="M 89 38.766 h -9.552 c -0.553 0 -1 -0.448 -1 -1 s 0.447 -1 1 -1 H 89 c 0.553 0 1 0.448 1 1 S 89.553 38.766 89 38.766 z" style="stroke: none; stroke-width: 1; stroke-dasharray: none; stroke-linecap: butt; stroke-linejoin: miter; stroke-miterlimit: 10; fill: rgb(0,0,0); fill-rule: nonzero; opacity: 1;" transform=" matrix(1 0 0 1 0 0) " stroke-linecap="round" />
</g>
</svg>